<?xml version="1.0" encoding="utf-8"?>
<svg version="1.1" baseProfile="tiny" id="Layer_1" x="0px" y="0px" width="218.637px" height="36.273px" viewBox="0 0 218.637 36.273" xmlns="http://www.w3.org/2000/svg">
  <polygon points="205.123,29.299 194.235,18.412 205.123,7.523 208.287,10.686 200.561,18.412 208.287,26.136 " style="fill: rgb(245, 173, 47);"/>
  <polygon points="167.852,29.299 156.964,18.412 167.852,7.523 171.015,10.686 163.291,18.412 171.015,26.136 " style="fill: rgb(245, 173, 47);"/>
  <polygon points="130.581,29.299 119.693,18.412 130.581,7.523 133.745,10.686 126.019,18.412 133.745,26.136 " style="fill: rgb(245, 173, 47);"/>
  <polygon points="93.31,29.299 82.422,18.412 93.31,7.523 96.473,10.686 88.749,18.412 96.473,26.136 " style="fill: rgb(245, 173, 47);"/>
  <polygon points="56.038,29.299 45.15,18.412 56.038,7.523 59.202,10.686 51.475,18.412 59.202,26.136 " style="fill: rgb(245, 173, 47);"/>
  <polygon points="18.767,29.299 7.879,18.412 18.767,7.523 21.93,10.686 14.206,18.412 21.93,26.136 " style="fill: rgb(245, 173, 47);"/>
</svg>