<svg xmlns="http://www.w3.org/2000/svg" width="1100" height="450"><path fill="#DC6652" d="M0 0h1100v450H0z"/><path d="M36.443 391.471l10.887 10.888-10.887 10.888-3.164-3.163 7.726-7.725-7.726-7.726zm37.271 0l10.887 10.888-10.887 10.888-3.164-3.163 7.726-7.725-7.726-7.726zm37.269 0l10.891 10.888-10.891 10.888-3.161-3.163 7.726-7.725-7.726-7.726zm37.274 0l10.887 10.888-10.887 10.888-3.164-3.163 7.726-7.725-7.726-7.726zm37.271 0l10.887 10.888-10.887 10.888-3.164-3.163 7.726-7.725-7.726-7.726zm37.271 0l10.887 10.888-10.887 10.888-3.164-3.163 7.726-7.725-7.726-7.726zm37.271 0l10.887 10.888-10.887 10.888-3.164-3.163 7.726-7.725-7.726-7.726zm37.272 0l10.887 10.888-10.887 10.888-3.164-3.163 7.726-7.725-7.726-7.726zm37.271 0l10.887 10.888-10.887 10.888-3.164-3.163 7.726-7.725-7.726-7.726zm723.723-339.224l-10.887-10.888 10.887-10.888 3.164 3.162-7.727 7.726 7.727 7.725zm-37.271 0l-10.887-10.888 10.887-10.888 3.164 3.162-7.725 7.726 7.725 7.725zm-37.269 0l-10.89-10.888 10.89-10.888 3.161 3.162-7.727 7.726 7.727 7.725zm-37.274 0l-10.887-10.888 10.887-10.888 3.165 3.162-7.726 7.726 7.726 7.725zm-37.27 0l-10.888-10.888 10.888-10.888 3.163 3.162-7.725 7.726 7.725 7.725zm-37.272 0l-10.887-10.888 10.887-10.888 3.165 3.162-7.726 7.726 7.726 7.725zm-37.27 0l-10.888-10.888 10.888-10.888 3.163 3.162-7.725 7.726 7.725 7.725zm-37.272 0L786.55 41.359l10.888-10.888 3.164 3.162-7.727 7.726 7.727 7.725zm-37.271 0l-10.888-10.888 10.888-10.888 3.163 3.162-7.725 7.726 7.725 7.725z" fill="#A74538"/></svg>