<?xml version="1.0" encoding="utf-8"?>
<svg version="1.1" baseProfile="tiny" id="Layer_1" x="0px" y="0px" width="218.637px" height="36.273px" viewBox="0 0 218.637 36.273" xmlns="http://www.w3.org/2000/svg">
  <polygon fill="#54BCBC" points="11.043 7.523 21.931 18.411 11.043 29.299 7.879 26.137 15.605 18.411 7.879 10.687" transform="matrix(0, 1, -1, 0, 33.316, 3.506)"/>
  <polygon fill="#54BCBC" points="48.314 7.523 59.202 18.411 48.314 29.299 45.151 26.137 52.875 18.411 45.151 10.687" transform="matrix(0, 1, -1, 0, 70.587501, -33.7655)"/>
  <polygon fill="#54BCBC" points="85.585 7.523 96.473 18.411 85.585 29.299 82.421 26.137 90.147 18.411 82.421 10.687" transform="matrix(0, 1, -1, 0, 107.857999, -71.035998)"/>
  <polygon fill="#54BCBC" points="122.856 7.523 133.744 18.411 122.856 29.299 119.693 26.137 127.417 18.411 119.693 10.687" transform="matrix(0, 1, -1, 0, 145.129502, -108.307502)"/>
  <polygon fill="#54BCBC" points="160.128 7.523 171.016 18.411 160.128 29.299 156.964 26.137 164.691 18.411 156.964 10.687" transform="matrix(0, 1, -1, 0, 182.401006, -145.579005)"/>
  <polygon fill="#54BCBC" points="197.399 7.523 208.287 18.411 197.399 29.299 194.236 26.137 201.96 18.411 194.236 10.687" transform="matrix(0, 1, -1, 0, 219.672498, -182.850497)"/>
</svg>