<svg baseProfile="tiny" width="218.637" height="36.273" xmlns="http://www.w3.org/2000/svg"><path fill="#54BCBC" d="M25.793 14.549L14.905 25.437 4.017 14.549l3.162-3.164 7.726 7.726 7.724-7.726zm37.272-.001L52.177 25.436 41.289 14.548l3.162-3.162 7.726 7.723 7.724-7.724zm37.27.001L89.447 25.437 78.559 14.549l3.162-3.164 7.726 7.726 7.724-7.726zm37.272-.001l-10.888 10.888-10.888-10.888 3.162-3.163 7.726 7.724 7.724-7.724zm37.271.001L163.99 25.437l-10.888-10.888 3.162-3.164 7.726 7.727 7.724-7.727zm37.272 0l-10.89 10.888-10.888-10.888 3.162-3.163 7.726 7.724 7.724-7.724z"/></svg>