<svg xmlns="http://www.w3.org/2000/svg" width="1093.333" height="265.186"><path fill="#A8CD41" d="M25.874 43.458l-2.735-2.734 6.681-6.682-6.681-6.684 2.735-2.734 9.417 9.418zm32.237 0l-2.735-2.734 6.682-6.682-6.682-6.684 2.735-2.734 9.417 9.418zm32.238 0l-2.735-2.734 6.681-6.682-6.681-6.684 2.735-2.734 9.417 9.418zm32.237 0l-2.735-2.734 6.682-6.682-6.682-6.684 2.735-2.734 9.417 9.418zm32.238 0l-2.735-2.734 6.682-6.682-6.682-6.684 2.735-2.734 9.417 9.418zm32.237 0l-2.735-2.734 6.682-6.682-6.682-6.684 2.735-2.734 9.417 9.418zm32.237 0l-2.735-2.734 6.682-6.682-6.682-6.684 2.735-2.734 9.418 9.418zm32.238 0l-2.735-2.734 6.682-6.682-6.682-6.684 2.735-2.734 9.417 9.418zm821.027 205l-9.417-9.416 9.417-9.418 2.736 2.734-6.682 6.684 6.682 6.682zm-32.236 0l-9.419-9.416 9.419-9.418 2.734 2.734-6.683 6.684 6.683 6.682zm-32.24 0l-9.417-9.416 9.417-9.418 2.737 2.734-6.683 6.684 6.683 6.682zm-32.237 0l-9.417-9.416 9.417-9.418 2.736 2.734-6.682 6.684 6.682 6.682zm-32.237 0l-9.417-9.416 9.417-9.418 2.736 2.734-6.682 6.684 6.682 6.682zm-32.238 0l-9.417-9.416 9.417-9.418 2.737 2.734-6.683 6.684 6.683 6.682zm-32.238 0l-9.417-9.416 9.417-9.418 2.737 2.734-6.683 6.684 6.683 6.682zm-32.237 0l-9.417-9.416 9.417-9.418 2.736 2.734-6.682 6.684 6.682 6.682z"/></svg>