<svg baseProfile="tiny" width="218.637" height="36.273" xmlns="http://www.w3.org/2000/svg"><path fill="#f5ad2f" d="M11.043 7.523l10.888 10.888-10.888 10.888-3.164-3.162 7.726-7.726-7.726-7.724zm37.271 0l10.888 10.888-10.888 10.888-3.163-3.162 7.724-7.726-7.724-7.724zm37.271 0l10.888 10.888-10.888 10.888-3.164-3.162 7.726-7.726-7.726-7.724zm37.271 0l10.888 10.888-10.888 10.888-3.163-3.162 7.724-7.726-7.724-7.724zm37.272 0l10.888 10.888-10.888 10.888-3.164-3.162 7.727-7.726-7.727-7.724zm37.271 0l10.888 10.888-10.888 10.888-3.163-3.162 7.724-7.726-7.724-7.724z"/></svg>