<svg baseProfile="tiny" xmlns="http://www.w3.org/2000/svg" width="50.172" height="342.688"><path fill="#B94131" d="M15.147 324.012l10.888-10.888 10.887 10.888-3.162 3.164-7.725-7.726-7.726 7.726zm0-37.271l10.888-10.887 10.887 10.887-3.162 3.163-7.725-7.724-7.726 7.724zm0-37.27l10.888-10.89 10.887 10.89-3.162 3.162-7.725-7.726-7.726 7.726zm0-37.273l10.888-10.887 10.887 10.887-3.162 3.163-7.725-7.724-7.726 7.724zm0-37.271l10.888-10.888 10.887 10.888-3.162 3.164-7.725-7.726-7.726 7.726zm0-37.271l10.888-10.887 10.887 10.887-3.162 3.163-7.725-7.724-7.726 7.724zm0-37.271l10.888-10.887 10.887 10.887-3.162 3.164-7.725-7.726-7.726 7.726zm0-37.272l10.888-10.887 10.887 10.887-3.162 3.163-7.725-7.724-7.726 7.724zm0-37.271l10.888-10.887 10.887 10.887-3.162 3.164-7.725-7.726-7.726 7.726z"/></svg>