<svg baseProfile="tiny" xmlns="http://www.w3.org/2000/svg" width="50.172" height="342.688"><path fill="#B94131" d="M36.922 18.119L26.035 29.007 15.147 18.119l3.162-3.164 7.726 7.726 7.725-7.726zm0 37.271L26.035 66.277 15.147 55.39l3.162-3.163 7.726 7.724 7.725-7.724zm0 37.27l-10.887 10.89-10.888-10.89 3.162-3.162 7.726 7.726 7.725-7.726zm0 37.273L26.035 140.82l-10.888-10.887 3.162-3.163 7.726 7.724 7.725-7.724zm0 37.271l-10.887 10.888-10.888-10.888 3.162-3.164 7.726 7.726 7.725-7.726zm0 37.271l-10.887 10.887-10.888-10.887 3.162-3.163 7.726 7.724 7.725-7.724zm0 37.271l-10.887 10.887-10.888-10.887 3.162-3.164 7.726 7.726 7.725-7.726zm0 37.272l-10.887 10.887-10.888-10.887 3.162-3.164 7.726 7.725 7.725-7.725zm0 37.271l-10.887 10.887-10.888-10.887 3.162-3.164 7.726 7.726 7.725-7.726z"/></svg>