<svg baseProfile="tiny" xmlns="http://www.w3.org/2000/svg" width="445.5" height="40"><path fill="#61E0DC" d="M11.714 9.471l10.887 10.888-10.887 10.888-3.164-3.163 7.726-7.725-7.726-7.726zm37.271 0l10.887 10.888-10.887 10.888-3.164-3.163 7.726-7.725-7.726-7.726zm37.271 0l10.887 10.888-10.887 10.888-3.164-3.163 7.726-7.725-7.726-7.726zm37.271 0l10.887 10.888-10.887 10.888-3.164-3.163 7.726-7.725-7.726-7.726zm37.272 0l10.887 10.888-10.887 10.888-3.164-3.163 7.726-7.725-7.726-7.726zm37.271 0l10.887 10.888-10.887 10.888-3.164-3.163 7.726-7.725-7.726-7.726zm40.644 0l10.888 10.888-10.888 10.888-3.164-3.163 7.725-7.725-7.725-7.726zm37.27 0l10.888 10.888-10.888 10.888-3.163-3.163 7.726-7.725-7.726-7.726zm37.272 0l10.888 10.888-10.888 10.888-3.164-3.163 7.726-7.725-7.726-7.726zm37.27 0l10.888 10.888-10.888 10.888-3.163-3.163 7.725-7.725-7.725-7.726zm37.273 0l10.888 10.888-10.888 10.888-3.164-3.163 7.725-7.725-7.725-7.726zm37.27 0l10.888 10.888-10.888 10.888-3.163-3.163 7.725-7.725-7.725-7.726z"/></svg>