<svg baseProfile="tiny" xmlns="http://www.w3.org/2000/svg" width="445.5" height="40"><path fill="#61E0DC" d="M432.793 31.247l-10.887-10.888 10.887-10.888 3.164 3.163-7.727 7.725 7.727 7.726zm-37.272 0l-10.886-10.888 10.886-10.888 3.165 3.163-7.726 7.725 7.726 7.726zm-37.27 0l-10.888-10.888 10.888-10.888 3.164 3.163-7.726 7.725 7.726 7.726zm-37.271 0l-10.887-10.888L320.98 9.471l3.165 3.163-7.727 7.725 7.727 7.726zm-37.272 0l-10.887-10.888 10.887-10.888 3.164 3.163-7.726 7.725 7.726 7.726zm-37.27 0L235.55 20.359l10.888-10.888 3.164 3.163-7.727 7.725 7.727 7.726zm-40.645 0l-10.888-10.888 10.888-10.888 3.164 3.163-7.726 7.725 7.726 7.726zm-37.271 0l-10.887-10.888 10.887-10.888 3.164 3.163-7.726 7.725 7.726 7.726zm-37.271 0l-10.888-10.888 10.888-10.888 3.164 3.163-7.727 7.725 7.727 7.726zm-37.271 0L83.093 20.359 93.98 9.471l3.164 3.163-7.725 7.725 7.725 7.726zm-37.272 0L45.82 20.359 56.708 9.471l3.164 3.163-7.726 7.725 7.726 7.726zm-37.27 0L8.55 20.359 19.438 9.471l3.163 3.163-7.725 7.725 7.725 7.726z"/></svg>